<svg width="37" height="40" fill="none" xmlns="http://www.w3.org/2000/svg"><g fill-rule="evenodd" clip-rule="evenodd" fill="#002946"><path d="M24.03 12.822H7.65a.688.688 0 1 0 0 1.375h16.38a.688.688 0 1 0 0-1.375Zm2.83 3.298H10.48a.688.688 0 0 0 0 1.374h16.38a.688.688 0 1 0 0-1.375Z"/><path d="m36.123 27.74-9.352-17.324a5.274 5.274 0 0 0 4.174-5.151A5.271 5.271 0 0 0 25.68 0H6.55A6.437 6.437 0 0 0 .995 3.135 6.437 6.437 0 0 0 .81 9.51l8.53 16.195H6.898a5.271 5.271 0 0 0-5.265 5.265 5.271 5.271 0 0 0 5.265 5.266h18.296v3.077a.687.687 0 0 0 1.13.525l2.149-1.811 2.148 1.811a.687.687 0 0 0 1.13-.526v-3.118a5.715 5.715 0 0 0 4.302-2.855 5.722 5.722 0 0 0 .071-5.599ZM25.68 1.375a3.894 3.894 0 0 1 3.89 3.89 3.894 3.894 0 0 1-3.888 3.89H10.094a5.252 5.252 0 0 0 1.72-3.89 5.25 5.25 0 0 0-1.72-3.89H25.68ZM6.897 34.86a3.894 3.894 0 0 1-3.89-3.89 3.894 3.894 0 0 1 3.89-3.89h3.168l.668 1.268.022.045a4.348 4.348 0 0 1-.093 4.33 4.348 4.348 0 0 1-3.765 2.137Zm23.479 2.973-1.461-1.231a.686.686 0 0 0-.886 0l-1.46 1.231v-5.838l.024.012c.06.03.121.06.183.087l.021.01a4.203 4.203 0 0 0 3.35 0l.022-.01a4.11 4.11 0 0 0 .18-.087l.027-.012v5.838Zm-.22-7.328a2.77 2.77 0 0 1-1.563.572c-1.57.068-2.921-1.228-2.921-2.797 0-1.544 1.256-2.8 2.8-2.8 1.544 0 2.8 1.256 2.8 2.8 0 .894-.441 1.708-1.117 2.224Zm4.703 2.15a4.35 4.35 0 0 1-3.108 2.15V30.86c.56-.71.896-1.607.896-2.58a4.18 4.18 0 0 0-4.175-4.175 4.18 4.18 0 0 0-4.175 4.175c0 .973.335 1.87.896 2.58v4H10.64a5.81 5.81 0 0 0 1.203-1.433 5.71 5.71 0 0 0 .127-5.68l-.884-1.68-.002-.003L2.027 8.869a5.073 5.073 0 0 1 .146-5.024 5.073 5.073 0 0 1 4.377-2.47 3.894 3.894 0 0 1 3.89 3.89 3.894 3.894 0 0 1-3.89 3.89.688.688 0 1 0 0 1.375h18.72l9.643 17.863a4.356 4.356 0 0 1-.054 4.262Z"/></g></svg>