<svg width="40" height="40" fill="none" xmlns="http://www.w3.org/2000/svg"><path fill-rule="evenodd" clip-rule="evenodd" d="M39.488 4.686 20.155.019a.68.68 0 0 0-.294-.005l-19.328 4a.667.667 0 0 0-.533.65v30.667c0 .315.224.592.533.65l19.334 4a.573.573 0 0 0 .288-.005l19.333-4.666a.671.671 0 0 0 .512-.646V5.331a.662.662 0 0 0-.512-.645ZM8.667 3.694 10 3.416V9.48l-1.333.336V3.694ZM1.333 5.208l6-1.237v1.963l-6 1.242V5.208Zm0 27.611 6 1.248v1.963l-6-1.243v-1.968ZM10 36.579l-1.333-.277v-6.118L10 30.52v6.059Zm9.333 1.93-8-1.653v-1.973l8 1.659v1.968Zm0-3.333-8-1.659v-3.525a.667.667 0 0 0-.506-.645L8.16 28.68a.666.666 0 0 0-.827.646v3.365l-6-1.238V8.542l6-1.243v3.365a.666.666 0 0 0 .827.65l2.667-.666a.667.667 0 0 0 .506-.645V6.477l8-1.658v30.357Zm0-31.722-8 1.658V3.14l8-1.653v1.968ZM30 3.763l1.333.32V9.81L30 9.475V3.763Zm-9.333-2.25 8 1.935v1.963l-8-1.93v-1.97Zm8 35.04-8 1.93V36.52l8-1.936v1.968Zm2.666-.646-1.333.32V30.52l1.333-.336v5.723Zm7.334-1.765-6 1.445V33.63l6-1.451v1.963Zm0-3.334-6 1.451v-2.928c0-.208-.096-.4-.256-.523a.664.664 0 0 0-.571-.122l-2.667.666a.666.666 0 0 0-.506.645v3.222l-8 1.93V4.847l8 1.936v3.22c0 .305.208.571.506.646l2.667.667a.666.666 0 0 0 .827-.65V7.735l6 1.45v21.622Zm0-22.992-6-1.45V4.408l6 1.446v1.962Z" fill="#002946"/></svg>